<svg width="17" height="14" viewBox="0 0 17 14" fill="none" xmlns="http://www.w3.org/2000/svg">
<path d="M2.375 12.1625V13.3438C2.375 13.5333 2.31302 13.6901 2.18906 13.8141C2.0651 13.938 1.90833 14 1.71875 14H1.28125C1.09167 14 0.934896 13.938 0.810938 13.8141C0.686979 13.6901 0.625 13.5333 0.625 13.3438V6.25625L2.48438 0.65625C2.55729 0.452083 2.6776 0.291667 2.84531 0.175C3.01302 0.0583332 3.20625 0 3.425 0H13.575C13.7937 0 13.987 0.0583332 14.1547 0.175C14.3224 0.291667 14.4427 0.452083 14.5156 0.65625L16.375 6.25625V13.3438C16.375 13.5333 16.313 13.6901 16.1891 13.8141C16.0651 13.938 15.9083 14 15.7188 14H15.2594C15.0698 14 14.913 13.938 14.7891 13.8141C14.6651 13.6901 14.6031 13.5333 14.6031 13.3438V12.1625H2.375ZM2.44062 4.94375H14.5594L13.3562 1.3125H3.64375L2.44062 4.94375ZM4.25625 9.75625C4.59167 9.75625 4.8724 9.63958 5.09844 9.40625C5.32448 9.17292 5.4375 8.89583 5.4375 8.575C5.4375 8.23958 5.32448 7.95156 5.09844 7.71094C4.8724 7.47031 4.59167 7.35 4.25625 7.35C3.92083 7.35 3.63281 7.47031 3.39219 7.71094C3.15156 7.95156 3.03125 8.23958 3.03125 8.575C3.03125 8.91042 3.15156 9.19115 3.39219 9.41719C3.63281 9.64323 3.92083 9.75625 4.25625 9.75625ZM12.7656 9.75625C13.101 9.75625 13.3891 9.63958 13.6297 9.40625C13.8703 9.17292 13.9906 8.89583 13.9906 8.575C13.9906 8.23958 13.8703 7.95156 13.6297 7.71094C13.3891 7.47031 13.101 7.35 12.7656 7.35C12.4302 7.35 12.1495 7.47031 11.9234 7.71094C11.6974 7.95156 11.5844 8.23958 11.5844 8.575C11.5844 8.91042 11.701 9.19115 11.9344 9.41719C12.1677 9.64323 12.4448 9.75625 12.7656 9.75625Z" fill="#A2A6B9"/>
</svg>
