<svg width="20" height="19" viewBox="0 0 20 19" fill="none" xmlns="http://www.w3.org/2000/svg">
<path d="M0.5 18.4594L4.56875 7.08438L11.9406 14.3688L0.5 18.4594ZM10.9344 10.475L10.1906 9.73125L15.4406 4.48125C15.9073 4.01458 16.4979 3.7776 17.2125 3.77031C17.9271 3.76302 18.5177 3.99271 18.9844 4.45938L19.3562 4.83125L18.6125 5.575L18.1969 5.15938C17.9198 4.88229 17.599 4.7401 17.2344 4.73281C16.8698 4.72552 16.5417 4.86771 16.25 5.15938L10.9344 10.475ZM7.45625 7.08438L6.7125 6.34063L7.36875 5.68438C7.70417 5.34896 7.86094 4.96615 7.83906 4.53594C7.81719 4.10573 7.66042 3.74479 7.36875 3.45313L6.75625 2.84063L7.5 2.09688L8.06875 2.66563C8.57917 3.17604 8.83073 3.81406 8.82344 4.57969C8.81615 5.34531 8.55729 5.98333 8.04688 6.49375L7.45625 7.08438ZM9.22813 8.76875L8.48438 8.025L11.8094 4.7C12.0865 4.42292 12.2214 4.06927 12.2141 3.63906C12.2068 3.20885 12.0646 2.85521 11.7875 2.57813L10.4531 1.24375L11.1969 0.5L12.575 1.87813C13.0271 2.34479 13.2604 2.93177 13.275 3.63906C13.2896 4.34635 13.0635 4.93333 12.5969 5.4L9.22813 8.76875ZM12.6844 12.2469L11.9406 11.5031L12.9688 10.475C13.4792 9.96458 14.0917 9.70208 14.8063 9.6875C15.5208 9.67292 16.1333 9.92083 16.6438 10.4313L17.7594 11.5469L17.0156 12.2906L15.8781 11.1531C15.5427 10.8177 15.1927 10.65 14.8281 10.65C14.4635 10.65 14.1135 10.8177 13.7781 11.1531L12.6844 12.2469Z" fill="#787F9A"/>
</svg>
