<svg  width="74" height="60" viewBox="0 0 74 60"  xmlns="http://www.w3.org/2000/svg">
<path d="M5.88098 0.571411L12.6643 14.5047H24.581L17.7976 0.571411H25.956L32.7393 14.5047H44.656L37.8727 0.571411H46.031L52.8143 14.5047H64.731L57.9477 0.571411H68.2143C69.681 0.571411 70.9643 1.12141 72.0643 2.22141C73.1643 3.32141 73.7143 4.60474 73.7143 6.07141V53.7381C73.7143 55.2048 73.1643 56.4881 72.0643 57.5881C70.9643 58.6881 69.681 59.2381 68.2143 59.2381H5.88098C4.41431 59.2381 3.13098 58.6881 2.03098 57.5881C0.930982 56.4881 0.380981 55.2048 0.380981 53.7381V6.07141C0.380981 4.60474 0.930982 3.32141 2.03098 2.22141C3.13098 1.12141 4.41431 0.571411 5.88098 0.571411Z" fill="#4F577C"/>
</svg>
