<svg width="22" height="21" viewBox="0 0 22 21" xmlns="http://www.w3.org/2000/svg">
<path d="M6.125 15.75C5.1625 15.75 4.38375 16.5375 4.38375 17.5C4.38375 18.4625 5.1625 19.25 6.125 19.25C7.0875 19.25 7.875 18.4625 7.875 17.5C7.875 16.5375 7.0875 15.75 6.125 15.75ZM0.875 1.75V3.5H2.625L5.775 10.1413L4.59375 12.285C4.45375 12.53 4.375 12.8188 4.375 13.125C4.375 14.0875 5.1625 14.875 6.125 14.875H16.625V13.125H6.4925C6.37 13.125 6.27375 13.0288 6.27375 12.9062L6.3 12.8013L7.0875 11.375H13.6062C14.2625 11.375 14.84 11.0163 15.1375 10.4738L18.27 4.795C18.34 4.6725 18.375 4.52375 18.375 4.375C18.375 3.89375 17.9813 3.5 17.5 3.5H4.55875L3.73625 1.75H0.875ZM14.875 15.75C13.9125 15.75 13.1337 16.5375 13.1337 17.5C13.1337 18.4625 13.9125 19.25 14.875 19.25C15.8375 19.25 16.625 18.4625 16.625 17.5C16.625 16.5375 15.8375 15.75 14.875 15.75Z" fill="#4F577C"/>
</svg>
