<svg width="70" height="73" viewBox="0 0 70 73" fill="none" xmlns="http://www.w3.org/2000/svg">
<path d="M40.775 72.981L37.1 69.131L49.525 56.1143L16.1 21.0976L3.675 34.1143L0 30.2643L4.9 24.9476L0 19.8143L7.4375 12.0226L3.7625 8.17265L7.4375 4.32265L11.2 8.08098L18.55 0.380981L23.45 5.51432L28.525 0.380981L32.2 4.23098L19.775 17.2476L53.2 52.2643L65.625 39.2477L69.3 43.0976L64.4 48.4143L69.3 53.5476L61.775 61.431L65.45 65.281L61.775 69.131L58.1 65.281L50.75 72.981L45.85 67.8476L40.775 72.981Z" fill="#A2A6B9"/>
</svg>
