<svg width="18" height="13" viewBox="0 0 18 13" fill="none" xmlns="http://www.w3.org/2000/svg">
<path d="M1.66926 12.8969C1.11509 12.8969 0.681241 12.7109 0.367699 12.339C0.0541572 11.9672 -0.0588636 11.4531 0.0286364 10.7969L1.07864 3.46873C1.1953 2.69581 1.55624 2.03227 2.16145 1.4781C2.76666 0.923934 3.45572 0.646851 4.22864 0.646851H13.7005C14.4734 0.646851 15.1625 0.923934 15.7677 1.4781C16.3729 2.03227 16.7338 2.69581 16.8505 3.46873L17.8786 10.7969C17.9661 11.4531 17.8531 11.9672 17.5396 12.339C17.226 12.7109 16.7922 12.8969 16.238 12.8969C15.9026 12.8969 15.6182 12.8422 15.3849 12.7328C15.1516 12.6234 14.9547 12.4885 14.7943 12.3281L12.5193 10.0531H5.38801L3.11301 12.3281C2.95259 12.4885 2.75572 12.6234 2.52239 12.7328C2.28905 12.8422 2.00468 12.8969 1.66926 12.8969ZM13.7661 7.64685C13.9995 7.64685 14.2036 7.55935 14.3786 7.38435C14.5536 7.20935 14.6411 7.00518 14.6411 6.77185C14.6411 6.53852 14.5536 6.33435 14.3786 6.15935C14.2036 5.98435 13.9995 5.89685 13.7661 5.89685C13.5328 5.89685 13.3286 5.98435 13.1536 6.15935C12.9786 6.33435 12.8911 6.53852 12.8911 6.77185C12.8911 7.00518 12.9786 7.20935 13.1536 7.38435C13.3286 7.55935 13.5328 7.64685 13.7661 7.64685ZM11.9068 4.8031C12.1401 4.8031 12.3443 4.7156 12.5193 4.5406C12.6943 4.3656 12.7818 4.16143 12.7818 3.9281C12.7818 3.69477 12.6943 3.4906 12.5193 3.3156C12.3443 3.1406 12.1401 3.0531 11.9068 3.0531C11.6734 3.0531 11.4693 3.1406 11.2943 3.3156C11.1193 3.4906 11.0318 3.69477 11.0318 3.9281C11.0318 4.16143 11.1193 4.3656 11.2943 4.5406C11.4693 4.7156 11.6734 4.8031 11.9068 4.8031ZM5.01614 7.53748H6.10989V5.89685H7.75051V4.8031H6.10989V3.16248H5.01614V4.8031H3.37551V5.89685H5.01614V7.53748Z" fill="#4F577C"/>
</svg>
