<svg width="82" height="82" viewBox="0 0 82 82" fill="none" xmlns="http://www.w3.org/2000/svg">
<path d="M0.666748 57.1333C0.666748 54.2 1.20147 51.4347 2.27091 48.8375C3.34036 46.2402 5.02092 43.9791 7.31258 42.0541C9.60425 40.1291 12.507 38.6014 16.0209 37.4708C19.5348 36.3402 23.7056 35.775 28.5334 35.775C33.4223 35.775 37.6084 36.3402 41.0918 37.4708C44.5751 38.6014 47.4626 40.1291 49.7543 42.0541C52.0459 43.9791 53.7265 46.2402 54.7959 48.8375C55.8654 51.4347 56.4001 54.2 56.4001 57.1333H0.666748ZM61.9001 81.3333V56.125C61.9001 49.0361 59.5931 43.2764 54.9793 38.8458C50.3654 34.4152 45.1862 31.6194 39.4417 30.4583L37.8834 17.1666H56.6751V0.666626H62.1751V17.1666H81.3334L75.1918 75.8333C75.0084 77.4222 74.3515 78.7361 73.2209 79.775C72.0904 80.8139 70.6695 81.3333 68.9584 81.3333H61.9001ZM0.666748 69.2333V63H56.4001V69.2333H0.666748ZM3.41675 81.3333C2.68341 81.3333 2.04175 81.0583 1.49175 80.5083C0.941748 79.9583 0.666748 79.3166 0.666748 78.5833V75.1H56.4001V78.5833C56.4001 79.3166 56.1251 79.9583 55.5751 80.5083C55.0251 81.0583 54.3834 81.3333 53.6501 81.3333H3.41675Z" fill="#4F577C"/>
</svg>
