<svg width="18" height="18" viewBox="0 0 18 18" fill="none" xmlns="http://www.w3.org/2000/svg">
<path d="M9.25 18C8.03958 18 6.90208 17.7703 5.8375 17.311C4.77292 16.8516 3.84688 16.2282 3.05938 15.4407C2.27188 14.6532 1.64844 13.7271 1.18906 12.6625C0.729687 11.5979 0.5 10.4604 0.5 9.25003C0.5 8.03961 0.729687 6.90211 1.18906 5.83753C1.64844 4.77295 2.27188 3.84691 3.05938 3.05941C3.84688 2.27191 4.77292 1.64847 5.8375 1.18909C6.90208 0.729718 8.03958 0.500031 9.25 0.500031C10.4604 0.500031 11.5979 0.729718 12.6625 1.18909C13.7271 1.64847 14.6531 2.27191 15.4406 3.05941C16.2281 3.84691 16.8516 4.77295 17.3109 5.83753C17.7703 6.90211 18 8.03961 18 9.25003C18 10.4604 17.7703 11.5979 17.3109 12.6625C16.8516 13.7271 16.2281 14.6532 15.4406 15.4407C14.6531 16.2282 13.7271 16.8516 12.6625 17.311C11.5979 17.7703 10.4604 18 9.25 18ZM6.60313 16.25L7.98125 12.9688C7.42708 12.7792 6.9349 12.4766 6.50469 12.061C6.07448 11.6453 5.75 11.1386 5.53125 10.5407L2.25 11.8532C2.70208 12.8886 3.3 13.7854 4.04375 14.5438C4.7875 15.3021 5.64063 15.8709 6.60313 16.25ZM5.50938 7.98128C5.74271 7.38336 6.07083 6.87295 6.49375 6.45003C6.91667 6.02711 7.40521 5.72086 7.95937 5.53128L6.64687 2.25003C5.55312 2.70211 4.62708 3.31097 3.86875 4.07659C3.11042 4.84222 2.57083 5.70628 2.25 6.66878L5.50938 7.98128ZM9.25 11.875C9.97917 11.875 10.599 11.6198 11.1094 11.1094C11.6198 10.599 11.875 9.9792 11.875 9.25003C11.875 8.52086 11.6198 7.90107 11.1094 7.39066C10.599 6.88024 9.97917 6.62503 9.25 6.62503C8.52083 6.62503 7.90104 6.88024 7.39062 7.39066C6.88021 7.90107 6.625 8.52086 6.625 9.25003C6.625 9.9792 6.88021 10.599 7.39062 11.1094C7.90104 11.6198 8.52083 11.875 9.25 11.875ZM11.8969 16.25C12.9031 15.8417 13.7781 15.262 14.5219 14.511C15.2656 13.7599 15.8417 12.8886 16.25 11.8969L12.9688 10.5407C12.75 11.1532 12.4255 11.6672 11.9953 12.0828C11.5651 12.4985 11.0729 12.7938 10.5188 12.9688L11.8969 16.25ZM12.9688 7.9594L16.25 6.60316C15.8417 5.61149 15.262 4.74013 14.5109 3.98909C13.7599 3.23805 12.8885 2.65836 11.8969 2.25003L10.5625 5.53128C11.1167 5.72086 11.5979 6.02347 12.0062 6.43909C12.4146 6.85472 12.7354 7.36149 12.9688 7.9594Z" fill="#787F9A"/>
</svg>
