<svg width="21" height="21" viewBox="0 0 21 21" fill="none" xmlns="http://www.w3.org/2000/svg">
<path d="M6.125 19.25V13.8031H4.57187C4.04687 13.8031 3.59115 13.6245 3.20469 13.2672C2.81823 12.9099 2.625 12.4688 2.625 11.9437C2.625 11.55 2.72344 11.1818 2.92031 10.8391C3.11719 10.4964 3.39792 10.2448 3.7625 10.0844L9.90937 7.45937V6.54063C9.36979 6.39479 8.92865 6.09948 8.58594 5.65469C8.24323 5.2099 8.07188 4.71042 8.07188 4.15625C8.07188 3.48542 8.3125 2.91667 8.79375 2.45C9.275 1.98333 9.85104 1.75 10.5219 1.75C11.1927 1.75 11.7688 1.98333 12.25 2.45C12.7312 2.91667 12.9719 3.48542 12.9719 4.15625H11.6594C11.6594 3.85 11.5464 3.59115 11.3203 3.37969C11.0943 3.16823 10.8281 3.0625 10.5219 3.0625C10.2156 3.0625 9.94948 3.16823 9.72344 3.37969C9.4974 3.59115 9.38438 3.85 9.38438 4.15625C9.38438 4.49167 9.4974 4.7724 9.72344 4.99844C9.94948 5.22448 10.2302 5.3375 10.5656 5.3375C10.7406 5.3375 10.8938 5.39948 11.025 5.52344C11.1562 5.6474 11.2219 5.79688 11.2219 5.97187V7.45937L17.2375 10.0844C17.6021 10.2448 17.8828 10.4964 18.0797 10.8391C18.2766 11.1818 18.375 11.55 18.375 11.9437C18.375 12.4688 18.1818 12.9099 17.7953 13.2672C17.4089 13.6245 16.9531 13.8031 16.4281 13.8031H14.875V19.25H6.125ZM4.57187 12.4906H6.125V11.375H14.875V12.4906H16.4281C16.5885 12.4906 16.7344 12.4359 16.8656 12.3266C16.9969 12.2172 17.0625 12.0823 17.0625 11.9219C17.0625 11.7906 17.026 11.674 16.9531 11.5719C16.8802 11.4698 16.7854 11.3896 16.6687 11.3313L10.5656 8.575L4.33125 11.3313C4.21458 11.3896 4.11979 11.4698 4.04688 11.5719C3.97396 11.674 3.9375 11.7833 3.9375 11.9C3.9375 12.0604 3.99948 12.199 4.12344 12.3156C4.2474 12.4323 4.39687 12.4906 4.57187 12.4906Z" fill="#A2A6B9"/>
</svg>
