<svg width="18" height="18" viewBox="0 0 18 18" fill="none" xmlns="http://www.w3.org/2000/svg">
<path d="M8.15938 13.625H9.47188V8.375H8.15938V13.625ZM8.75 6.75625C8.95417 6.75625 9.12552 6.69063 9.26406 6.55938C9.4026 6.42813 9.47188 6.26042 9.47188 6.05625C9.47188 5.85208 9.4026 5.67708 9.26406 5.53125C9.12552 5.38542 8.95417 5.3125 8.75 5.3125C8.54583 5.3125 8.37448 5.38542 8.23594 5.53125C8.0974 5.67708 8.02812 5.85208 8.02812 6.05625C8.02812 6.26042 8.0974 6.42813 8.23594 6.55938C8.37448 6.69063 8.54583 6.75625 8.75 6.75625ZM8.75 18C7.55417 18 6.42396 17.7703 5.35938 17.3109C4.29479 16.8516 3.3651 16.2245 2.57031 15.4297C1.77552 14.6349 1.14844 13.7052 0.689062 12.6406C0.229687 11.576 0 10.4385 0 9.22813C0 8.03229 0.229687 6.90208 0.689062 5.8375C1.14844 4.77292 1.77552 3.84688 2.57031 3.05938C3.3651 2.27188 4.29479 1.64844 5.35938 1.18906C6.42396 0.729687 7.56146 0.5 8.77187 0.5C9.96771 0.5 11.0979 0.729687 12.1625 1.18906C13.2271 1.64844 14.1531 2.27188 14.9406 3.05938C15.7281 3.84688 16.3516 4.77292 16.8109 5.8375C17.2703 6.90208 17.5 8.03958 17.5 9.25C17.5 10.4458 17.2703 11.576 16.8109 12.6406C16.3516 13.7052 15.7281 14.6349 14.9406 15.4297C14.1531 16.2245 13.2271 16.8516 12.1625 17.3109C11.0979 17.7703 9.96042 18 8.75 18ZM8.77187 16.6875C10.8281 16.6875 12.5781 15.962 14.0219 14.5109C15.4656 13.0599 16.1875 11.299 16.1875 9.22813C16.1875 7.17188 15.4656 5.42188 14.0219 3.97812C12.5781 2.53437 10.8208 1.8125 8.75 1.8125C6.69375 1.8125 4.9401 2.53437 3.48906 3.97812C2.03802 5.42188 1.3125 7.17917 1.3125 9.25C1.3125 11.3062 2.03802 13.0599 3.48906 14.5109C4.9401 15.962 6.70104 16.6875 8.77187 16.6875Z" fill="#FF9C29"/>
</svg>
