<svg width="160" height="44" viewBox="0 0 160 44" fill="none" xmlns="http://www.w3.org/2000/svg">
<path d="M66.4581 26.1744L70.7204 20.3235V34.2726H76.765V7.92419H72.8903L65.1795 19.006L56.7712 7.92419H52.7415V34.2726H58.7861V19.8972L64.0558 26.4843L66.4581 26.1744Z" fill="#25305E"/>
<path d="M84.9856 28.383C84.9856 27.8405 85.1793 27.3626 85.5668 26.9493C85.9543 26.536 86.4838 26.3293 87.1555 26.3293H90.1003V28.6542C89.5837 29.1192 89.0412 29.4808 88.4729 29.7391C87.9046 29.9716 87.3492 30.0879 86.8067 30.0879C86.4709 30.0879 86.1609 30.0104 85.8768 29.8554C85.6185 29.7004 85.3989 29.4937 85.2181 29.2354C85.0631 28.9771 84.9856 28.693 84.9856 28.383ZM82.2733 21.2921C82.9707 20.9563 83.7973 20.6722 84.7531 20.4397C85.7089 20.2072 86.5742 20.091 87.3492 20.091C88.0983 20.091 88.7054 20.3105 89.1703 20.7497C89.6611 21.163 89.9453 21.77 90.0228 22.5708L90.0615 22.6871H87.1167C84.9727 22.6871 83.229 23.152 81.8858 24.082C80.5425 24.9861 79.8709 26.4327 79.8709 28.4217C79.8709 30.3074 80.4392 31.8315 81.5758 32.994C82.7124 34.1564 84.4431 34.7376 86.768 34.7376C87.6463 34.7376 88.4729 34.518 89.2478 34.0789C90.0228 33.6397 90.7332 33.0456 91.379 32.2965L92.8126 34.2726H96.1837V22.2996C96.1837 20.8272 95.8479 19.5356 95.1762 18.4248C94.5304 17.3141 93.6005 16.4487 92.3864 15.8287C91.1981 15.2088 89.8032 14.8988 88.2017 14.8988C87.4267 14.8988 86.5484 14.9763 85.5668 15.1313C84.611 15.2863 83.694 15.4929 82.8157 15.7512C81.9633 16.0095 81.24 16.3066 80.6459 16.6424L82.2733 21.2921Z" fill="#25305E"/>
<path d="M104.586 34.2726V21.4471C105 21.2147 105.452 20.9693 105.943 20.7109C106.459 20.4526 106.976 20.246 107.493 20.091C108.035 19.9101 108.539 19.8197 109.004 19.8197C109.805 19.8197 110.399 20.091 110.786 20.6334C111.174 21.1501 111.367 21.8604 111.367 22.7646V34.2726H117.412V22.3383C117.412 20.9176 117.192 19.6518 116.753 18.5411C116.34 17.4045 115.655 16.5133 114.7 15.8675C113.744 15.1958 112.439 14.86 110.786 14.86C109.934 14.86 109.068 14.9763 108.19 15.2088C107.338 15.4412 106.485 15.7641 105.633 16.1775C104.806 16.5649 104.031 16.9912 103.308 17.4561L102.262 15.48H98.5031V34.2726H104.586Z" fill="#25305E"/>
<path d="M137.711 15.5187H134.611L131.627 19.5485V34.9701C131.627 35.9775 131.214 36.7783 130.387 37.3724C129.587 37.9924 128.527 38.3024 127.21 38.3024C126.358 38.3024 125.441 38.1861 124.459 37.9537C123.503 37.747 122.431 37.3466 121.243 36.7525L119.383 41.0147C119.951 41.3764 120.61 41.6993 121.359 41.9834C122.134 42.2676 122.909 42.5001 123.684 42.6809C124.485 42.8617 125.234 42.9909 125.931 43.0684C126.629 43.1458 127.171 43.1846 127.559 43.1846C129.599 43.1846 131.382 42.8488 132.906 42.1772C134.43 41.5314 135.605 40.6014 136.432 39.3873C137.284 38.1732 137.711 36.7266 137.711 35.0476V15.5187ZM133.332 27.3368C132.506 28.1376 131.731 28.7575 131.007 29.1967C130.31 29.6358 129.587 29.8554 128.837 29.8554C128.011 29.8554 127.3 29.6487 126.706 29.2354C126.112 28.8221 125.66 28.2538 125.35 27.5305C125.04 26.7814 124.885 25.9031 124.885 24.8957C124.885 23.8624 125.04 22.9712 125.35 22.2221C125.66 21.4471 126.099 20.853 126.668 20.4397C127.262 20.0006 127.933 19.781 128.682 19.781C129.457 19.781 130.219 19.9747 130.969 20.3622C131.718 20.7238 132.506 21.318 133.332 22.1446L135.037 18.3861C134.495 17.6628 133.849 17.0428 133.1 16.5262C132.376 16.0095 131.614 15.6092 130.814 15.325C130.013 15.0409 129.212 14.8988 128.411 14.8988C126.422 14.8988 124.691 15.2992 123.219 16.1C121.772 16.8749 120.636 18.0115 119.809 19.5098C119.008 20.9822 118.608 22.7775 118.608 24.8957C118.608 27.0139 119.008 28.8092 119.809 30.2816C120.61 31.7282 121.734 32.826 123.18 33.5752C124.627 34.3243 126.293 34.6989 128.179 34.6989C129.109 34.6989 130 34.5439 130.852 34.2339C131.705 33.9239 132.48 33.5106 133.177 32.994C133.9 32.4515 134.52 31.8703 135.037 31.2503L133.332 27.3368Z" fill="#25305E"/>
<path d="M149.577 34.6989C147.536 34.6989 145.741 34.3243 144.191 33.5752C142.641 32.826 141.427 31.7153 140.549 30.2429C139.696 28.7446 139.27 26.9493 139.27 24.8569C139.296 22.7646 139.748 20.9822 140.626 19.5098C141.53 18.0373 142.757 16.9007 144.307 16.1C145.883 15.2992 147.665 14.8988 149.654 14.8988C151.695 14.8988 153.49 15.2863 155.04 16.0612C156.59 16.8362 157.804 17.9728 158.683 19.471C159.561 20.9434 160 22.7516 160 24.8957C160 26.9364 159.548 28.693 158.644 30.1654C157.74 31.6378 156.5 32.7615 154.924 33.5364C153.374 34.3114 151.592 34.6989 149.577 34.6989ZM149.616 29.7004C150.468 29.7004 151.191 29.5067 151.785 29.1192C152.405 28.7059 152.883 28.1376 153.219 27.4143C153.555 26.691 153.723 25.8515 153.723 24.8957C153.723 23.9399 153.555 23.0875 153.219 22.3383C152.909 21.5892 152.444 21.008 151.824 20.5947C151.23 20.1555 150.52 19.936 149.693 19.936C148.866 19.936 148.13 20.1426 147.484 20.5559C146.864 20.9692 146.387 21.5375 146.051 22.2608C145.715 22.9841 145.547 23.8495 145.547 24.8569C145.547 25.7869 145.715 26.6264 146.051 27.3755C146.387 28.0988 146.852 28.6671 147.446 29.0804C148.066 29.4937 148.789 29.7004 149.616 29.7004Z" fill="#25305E"/>
<path d="M11.7793 24.0045H16.8165V29.4679C16.3515 29.5454 15.8607 29.6229 15.3441 29.7004C14.8275 29.752 14.2592 29.7779 13.6392 29.7779C12.3476 29.7779 11.1335 29.4679 9.99691 28.8479C8.88614 28.2021 7.98203 27.2334 7.28457 25.9419C6.61294 24.6503 6.27713 23.0616 6.27713 21.1759C6.27713 19.7035 6.4967 18.4248 6.93584 17.3399C7.40081 16.2291 7.99494 15.3121 8.71823 14.5888C9.46735 13.8655 10.3069 13.323 11.2368 12.9614C12.1926 12.5997 13.1484 12.4189 14.1042 12.4189C14.8016 12.4189 15.4345 12.4577 16.0028 12.5351C16.5711 12.6126 17.1781 12.7289 17.8239 12.8839C18.4697 13.0389 19.2189 13.2584 20.0713 13.5426L21.9312 9.35784C21.2079 8.9187 20.3555 8.55705 19.3738 8.2729C18.4181 7.98875 17.4623 7.7821 16.5065 7.65294C15.5507 7.49795 14.7241 7.42045 14.0267 7.42045C12.0634 7.42045 10.2294 7.74335 8.52449 8.38914C6.84543 9.03494 5.3601 9.96489 4.06851 11.179C2.77692 12.3931 1.76948 13.8526 1.04619 15.5575C0.348729 17.2365 0 19.1223 0 21.2146C0 23.9011 0.542468 26.2648 1.6274 28.3055C2.73817 30.3462 4.31391 31.9348 6.35462 33.0714C8.39533 34.208 10.8106 34.7763 13.6004 34.7763C14.5821 34.7763 15.6024 34.6988 16.6615 34.5438C17.7464 34.3889 18.7797 34.1693 19.7613 33.8851C20.7429 33.5752 21.5696 33.2393 22.2412 32.8777V19.471H12.283L11.7793 24.0045Z" fill="#FF9C29"/>
<path d="M37.2535 34.8151C34.4895 34.8151 32.113 34.208 30.1239 32.9939C28.1349 31.7798 26.6108 30.1395 25.5517 28.073C24.4926 26.0064 23.963 23.7203 23.963 21.2146C23.963 18.5023 24.5313 16.1129 25.6679 14.0463C26.8045 11.9539 28.3673 10.3265 30.3564 9.1641C32.3454 7.97584 34.6445 7.36879 37.2535 7.34296C40.0692 7.34296 42.4586 7.95 44.4218 9.1641C46.4109 10.3782 47.922 12.0185 48.9553 14.0851C50.0144 16.1258 50.544 18.4119 50.544 20.9434C50.544 23.6557 49.9756 26.0581 48.839 28.1505C47.7283 30.217 46.1784 31.8444 44.1893 33.0327C42.2003 34.1951 39.8883 34.7892 37.2535 34.8151ZM37.2147 29.7391C38.5322 29.7391 39.7204 29.4162 40.7795 28.7704C41.8386 28.1246 42.6782 27.1559 43.2981 25.8644C43.9439 24.5469 44.2668 22.9066 44.2668 20.9434C44.2668 19.2902 43.9827 17.8307 43.4144 16.5649C42.8719 15.2992 42.084 14.3046 41.0508 13.5813C40.0175 12.8322 38.7647 12.4577 37.2922 12.4577C36.0523 12.4577 34.8899 12.8193 33.8049 13.5426C32.72 14.2659 31.8546 15.2733 31.2088 16.5649C30.5631 17.8565 30.2402 19.3935 30.2402 21.1759C30.2402 22.8291 30.5114 24.3015 31.0539 25.5931C31.6222 26.8847 32.4229 27.9051 33.4562 28.6542C34.5153 29.3775 35.7682 29.7391 37.2147 29.7391Z" fill="#FF9C29"/>
<rect x="34.9143" y="2.94843" width="2.54019" height="8.22539" rx="1.2701" transform="rotate(-7.23549 34.9143 2.94843)" fill="#996E1F"/>
<path d="M47.2368 12.9084C42.4178 11.7106 37.9599 7.45887 36.3333 5.48275C41.3646 1.35176 46.3746 1.3242 48.2506 1.82679C53.4132 2.98095 57.7914 7.37506 59.3351 9.42784C54.3425 13.3634 49.1893 13.388 47.2368 12.9084Z" fill="#57CA23" stroke="white" stroke-width="1.2"/>
</svg>
