<svg width="21" height="13" viewBox="0 0 21 13" fill="none" xmlns="http://www.w3.org/2000/svg">
<path d="M3.43438 12.25C2.48646 12.25 1.67708 11.9182 1.00625 11.2547C0.335417 10.5911 0 9.77812 0 8.81563C0 7.85312 0.331771 7.0401 0.995313 6.37656C1.65885 5.71302 2.46458 5.38125 3.4125 5.38125L2.38437 4.59375H0V3.5H3.95938L6.125 4.8125L9.60313 3.5H12.6656L10.9594 1.3125H9.0125V0H11.6156L13.4969 2.42813L16.3188 1.02813V3.30312H14.175L16.0344 5.70937C16.2823 5.60729 16.5302 5.53073 16.7781 5.47969C17.026 5.42865 17.2812 5.40313 17.5437 5.40313C18.5062 5.40313 19.3229 5.7349 19.9937 6.39844C20.6646 7.06198 21 7.875 21 8.8375C21 9.8 20.6646 10.6094 19.9937 11.2656C19.3229 11.9219 18.5062 12.25 17.5437 12.25C16.5958 12.25 15.7901 11.9182 15.1266 11.2547C14.463 10.5911 14.1312 9.78542 14.1312 8.8375C14.1312 8.4 14.2042 7.98438 14.35 7.59063C14.4958 7.19688 14.7146 6.83958 15.0062 6.51875L14.2406 5.53437L11.0469 10.4125H8.64062L6.86875 8.81563C6.86875 9.77812 6.53698 10.5911 5.87344 11.2547C5.2099 11.9182 4.39687 12.25 3.43438 12.25ZM3.43438 10.9375C4.03229 10.9375 4.53542 10.7297 4.94375 10.3141C5.35208 9.89844 5.55625 9.39896 5.55625 8.81563C5.55625 8.23229 5.35208 7.73281 4.94375 7.31719C4.53542 6.90156 4.03229 6.69375 3.43438 6.69375C2.85104 6.69375 2.35156 6.89792 1.93594 7.30625C1.52031 7.71458 1.3125 8.21771 1.3125 8.81563C1.3125 9.41354 1.52031 9.91667 1.93594 10.325C2.35156 10.7333 2.85104 10.9375 3.43438 10.9375ZM17.5437 10.9375C18.1417 10.9375 18.6484 10.7333 19.0641 10.325C19.4797 9.91667 19.6875 9.42083 19.6875 8.8375C19.6875 8.23958 19.4797 7.73281 19.0641 7.31719C18.6484 6.90156 18.1417 6.69375 17.5437 6.69375C16.9604 6.69375 16.4646 6.90156 16.0562 7.31719C15.6479 7.73281 15.4437 8.23958 15.4437 8.8375C15.4437 9.42083 15.6479 9.91667 16.0562 10.325C16.4646 10.7333 16.9604 10.9375 17.5437 10.9375Z" fill="#A2A6B9"/>
</svg>
