<svg width="18" height="17" viewBox="0 0 18 17" fill="none" xmlns="http://www.w3.org/2000/svg">
<path d="M1.8125 16.25C1.44792 16.25 1.13802 16.1224 0.882812 15.8672C0.627604 15.612 0.5 15.3021 0.5 14.9375V0.500031L1.96562 1.96566L3.40937 0.500031L4.875 1.96566L6.34063 0.500031L7.78437 1.96566L9.25 0.500031L10.7156 1.96566L12.1594 0.500031L13.625 1.96566L15.0906 0.500031L16.5344 1.96566L18 0.500031V14.9375C18 15.3021 17.8724 15.612 17.6172 15.8672C17.362 16.1224 17.0521 16.25 16.6875 16.25H1.8125ZM1.8125 14.9375H8.59375V8.81253H1.8125V14.9375ZM9.90625 14.9375H16.6875V12.5313H9.90625V14.9375ZM9.90625 11.2188H16.6875V8.81253H9.90625V11.2188ZM1.8125 7.50003H16.6875V4.87503H1.8125V7.50003Z" fill="#787F9A"/>
</svg>
