<svg width="18" height="18" viewBox="0 0 18 18" fill="none" xmlns="http://www.w3.org/2000/svg">
<path d="M8.99062 17.5C7.79479 17.3687 6.65365 17.0479 5.56719 16.5375C4.48073 16.0271 3.52917 15.3344 2.7125 14.4594C1.89583 13.5844 1.24323 12.5453 0.754687 11.3422C0.266146 10.1391 0.0145833 8.78646 0 7.28438C1.4 7.29896 2.65417 7.52865 3.7625 7.97344C4.87083 8.41823 5.81146 9.06719 6.58437 9.92031C7.35729 10.7734 7.95156 11.8344 8.36719 13.1031C8.78281 14.3719 8.99062 15.8375 8.99062 17.5ZM8.72813 10.7625C8.30521 10.0333 7.875 9.43542 7.4375 8.96875C7 8.50208 6.39479 8.02083 5.62188 7.525C5.68021 6.88333 5.80052 6.22344 5.98281 5.54531C6.1651 4.86719 6.39479 4.2 6.67188 3.54375C6.94896 2.8875 7.2625 2.25312 7.6125 1.64062C7.9625 1.02813 8.33438 0.48125 8.72813 0C9.12188 0.48125 9.4974 1.02448 9.85469 1.62969C10.212 2.2349 10.5328 2.87656 10.8172 3.55469C11.1016 4.23281 11.3349 4.91823 11.5172 5.61094C11.6995 6.30365 11.8198 6.97813 11.8781 7.63438C11.2365 7.92604 10.6458 8.35625 10.1062 8.925C9.56667 9.49375 9.10729 10.1062 8.72813 10.7625ZM10.3031 17.1719C10.2594 16.2385 10.1719 15.3344 10.0406 14.4594C9.90938 13.5844 9.71979 12.826 9.47188 12.1844C10.099 10.7698 11.1417 9.5849 12.6 8.62969C14.0583 7.67448 15.6917 7.21146 17.5 7.24062C17.3833 9.86562 16.6979 12.013 15.4437 13.6828C14.1896 15.3526 12.476 16.5156 10.3031 17.1719Z" fill="#4F577C"/>
</svg>
