<svg width="21" height="21" viewBox="0 0 21 21" fill="none" xmlns="http://www.w3.org/2000/svg">
<path fill-rule="evenodd" clip-rule="evenodd" d="M10.5 1.75C5.67 1.75 1.75 5.67 1.75 10.5C1.75 15.33 5.67 19.25 10.5 19.25C15.33 19.25 19.25 15.33 19.25 10.5C19.25 5.67 15.33 1.75 10.5 1.75ZM14.7875 13.5538L13.5625 14.7787C13.3875 14.9537 13.1163 14.9537 12.9412 14.7787L9.9575 11.795C8.89 12.1712 7.6475 11.9438 6.79 11.0863C5.81875 10.115 5.6525 8.645 6.27375 7.49875L8.33 9.555L9.56375 8.32125L7.5075 6.27375C8.6625 5.6525 10.1238 5.81875 11.095 6.79C11.9525 7.6475 12.18 8.89 11.8038 9.9575L14.7875 12.9412C14.9537 13.1075 14.9537 13.3875 14.7875 13.5538Z" fill="#787F9A"/>
</svg>
