<svg width="21" height="21" viewBox="0 0 21 21" fill="none" xmlns="http://www.w3.org/2000/svg">
<path d="M15.0587 7.87502L11.2262 2.13502C11.06 1.89002 10.78 1.76752 10.5 1.76752C10.22 1.76752 9.94 1.89002 9.77375 2.14377L5.94125 7.87502H1.75C1.26875 7.87502 0.875 8.26877 0.875 8.75002C0.875 8.82877 0.88375 8.90752 0.91 8.98627L3.1325 17.0975C3.33375 17.8325 4.0075 18.375 4.8125 18.375H16.1875C16.9925 18.375 17.6663 17.8325 17.8763 17.0975L20.0987 8.98627L20.125 8.75002C20.125 8.26877 19.7313 7.87502 19.25 7.87502H15.0587ZM7.875 7.87502L10.5 4.02502L13.125 7.87502H7.875ZM10.5 14.875C9.5375 14.875 8.75 14.0875 8.75 13.125C8.75 12.1625 9.5375 11.375 10.5 11.375C11.4625 11.375 12.25 12.1625 12.25 13.125C12.25 14.0875 11.4625 14.875 10.5 14.875Z" fill="#787F9A"/>
</svg>
