<svg width="20" height="18" viewBox="0 0 20 18" fill="none" xmlns="http://www.w3.org/2000/svg">
<path d="M5.14062 17.5219C3.72604 17.5219 2.51562 17.0078 1.50937 15.9797C0.503125 14.9516 0 13.7521 0 12.3813V6.54063H10.2594V12.3813C10.2594 13.7521 9.76354 14.9516 8.77187 15.9797C7.78021 17.0078 6.56979 17.5219 5.14062 17.5219ZM3.25937 10.8281C3.46354 10.8281 3.63125 10.7625 3.7625 10.6313C3.89375 10.5 3.95938 10.3323 3.95938 10.1281C3.95938 9.92396 3.89375 9.75625 3.7625 9.625C3.63125 9.49375 3.46354 9.42813 3.25937 9.42813C3.05521 9.42813 2.8875 9.49375 2.75625 9.625C2.625 9.75625 2.55938 9.92396 2.55938 10.1281C2.55938 10.3323 2.625 10.5 2.75625 10.6313C2.8875 10.7625 3.05521 10.8281 3.25937 10.8281ZM5.18438 14.2188C5.78229 14.2188 6.32187 14.0839 6.80312 13.8141C7.28437 13.5443 7.525 13.1688 7.525 12.6875H2.84375C2.84375 13.1688 3.08437 13.5443 3.56562 13.8141C4.04688 14.0839 4.58646 14.2188 5.18438 14.2188ZM7.04375 10.8281C7.24792 10.8281 7.41563 10.7625 7.54688 10.6313C7.67812 10.5 7.74375 10.3323 7.74375 10.1281C7.74375 9.92396 7.67812 9.75625 7.54688 9.625C7.41563 9.49375 7.24792 9.42813 7.04375 9.42813C6.83958 9.42813 6.67188 9.49375 6.54063 9.625C6.40938 9.75625 6.34375 9.92396 6.34375 10.1281C6.34375 10.3323 6.40938 10.5 6.54063 10.6313C6.67188 10.7625 6.83958 10.8281 7.04375 10.8281ZM14.1312 10.9812C13.6354 10.9812 13.1542 10.9193 12.6875 10.7953C12.2208 10.6714 11.776 10.4927 11.3531 10.2594V5.46875H8.94688V0H19.25V6.05938C19.25 7.41563 18.7542 8.575 17.7625 9.5375C16.7708 10.5 15.5604 10.9812 14.1312 10.9812ZM12.2719 4.48438C12.476 4.48438 12.6438 4.41146 12.775 4.26563C12.9062 4.11979 12.9719 3.95938 12.9719 3.78438C12.9719 3.58021 12.9062 3.4125 12.775 3.28125C12.6438 3.15 12.476 3.08438 12.2719 3.08438C12.0677 3.08438 11.9 3.15 11.7688 3.28125C11.6375 3.4125 11.5719 3.58021 11.5719 3.78438C11.5719 3.95938 11.6375 4.11979 11.7688 4.26563C11.9 4.41146 12.0677 4.48438 12.2719 4.48438ZM11.7906 7.67813H16.4719C16.4719 7.19688 16.2276 6.82135 15.7391 6.55156C15.2505 6.28177 14.7146 6.14688 14.1312 6.14688C13.6937 6.14688 13.1943 6.26719 12.6328 6.50781C12.0714 6.74844 11.7906 7.13854 11.7906 7.67813ZM16.0344 4.48438C16.2385 4.48438 16.4062 4.41146 16.5375 4.26563C16.6687 4.11979 16.7344 3.95938 16.7344 3.78438C16.7344 3.58021 16.6687 3.4125 16.5375 3.28125C16.4062 3.15 16.2385 3.08438 16.0344 3.08438C15.8302 3.08438 15.6625 3.15 15.5312 3.28125C15.4 3.4125 15.3344 3.58021 15.3344 3.78438C15.3344 3.95938 15.4 4.11979 15.5312 4.26563C15.6625 4.41146 15.8302 4.48438 16.0344 4.48438Z" fill="#A2A6B9"/>
</svg>
